HIERARCHY
ROOT Hips
{
  OFFSET 5.72205e-005 65.662 3.42586
  CHANNELS 6 Xposition Yposition Zposition Zrotation Xrotation Yrotation
  JOINT Chest
  {
    OFFSET 0 8.7983 -4.7612
    CHANNELS 6 Xposition Yposition Zposition Zrotation Xrotation Yrotation
    JOINT Chest2
    {
      OFFSET 0 8.0291 0.4195
      CHANNELS 6 Xposition Yposition Zposition Zrotation Xrotation Yrotation
      JOINT Chest3
      {
        OFFSET 0 9.9351 -2.2114
        CHANNELS 6 Xposition Yposition Zposition Zrotation Xrotation Yrotation
        JOINT Neck
        {
          OFFSET 0 22.3885 -0.4656
          CHANNELS 6 Xposition Yposition Zposition Zrotation Xrotation Yrotation
          JOINT Head
          {
            OFFSET -0.0001 12.643 3.4389
            CHANNELS 6 Xposition Yposition Zposition Zrotation Xrotation Yrotation
            End Site
            {
              OFFSET 0.0001 17.6655 0.5274
            }
          }
        }
        JOINT LeftCollar
        {
          OFFSET 2.2603 21.606 7.4023
          CHANNELS 6 Xposition Yposition Zposition Zrotation Xrotation Yrotation
          JOINT LeftShoulder
          {
            OFFSET 13.5163 -1.1332 -5.0146
            CHANNELS 6 Xposition Yposition Zposition Zrotation Xrotation Yrotation
            JOINT LeftElbow
            {
              OFFSET -0.0995 -28.05 -0.2431
              CHANNELS 6 Xposition Yposition Zposition Zrotation Xrotation Yrotation
              JOINT LeftWrist
              {
                OFFSET 0.0679 -23.3996 -0.1402
                CHANNELS 6 Xposition Yposition Zposition Zrotation Xrotation Yrotation
                JOINT LeftFinger1
                {
                  OFFSET 0.7932 -9.069 2.5189
                  CHANNELS 6 Xposition Yposition Zposition Zrotation Xrotation Yrotation
                  JOINT LeftFinger11
                  {
                    OFFSET -0.8272 -3.3923 0.5977
                    CHANNELS 6 Xposition Yposition Zposition Zrotation Xrotation Yrotation
                    JOINT LeftFinger12
                    {
                      OFFSET -0.5649 -2.3158 0.4082
                      CHANNELS 6 Xposition Yposition Zposition Zrotation Xrotation Yrotation
                      End Site
                      {
                        OFFSET -0.4919 -1.6479 0.2673
                      }
                    }
                  }
                }
                JOINT LeftFinger2
                {
                  OFFSET 0.9159 -9.2044 0.2193
                  CHANNELS 6 Xposition Yposition Zposition Zrotation Xrotation Yrotation
                  JOINT LeftFinger21
                  {
                    OFFSET 0.0117 -4.1944 -0.0248
                    CHANNELS 6 Xposition Yposition Zposition Zrotation Xrotation Yrotation
                    JOINT LeftFinger22
                    {
                      OFFSET 0.0071 -2.3249 -0.0142
                      CHANNELS 6 Xposition Yposition Zposition Zrotation Xrotation Yrotation
                      End Site
                      {
                        OFFSET -0.1475 -2.0882 0.0028
                      }
                    }
                  }
                }
                JOINT LeftFinger3
                {
                  OFFSET 0.6113 -8.7231 -2.0637
                  CHANNELS 6 Xposition Yposition Zposition Zrotation Xrotation Yrotation
                  JOINT LeftFinger31
                  {
                    OFFSET -0.1927 -3.8059 -0.2383
                    CHANNELS 6 Xposition Yposition Zposition Zrotation Xrotation Yrotation
                    JOINT LeftFinger32
                    {
                      OFFSET -0.1091 -2.1688 -0.1362
                      CHANNELS 6 Xposition Yposition Zposition Zrotation Xrotation Yrotation
                      End Site
                      {
                        OFFSET -0.2358 -1.9176 -0.0906
                      }
                    }
                  }
                }
                JOINT LeftFinger4
                {
                  OFFSET -0.6151 -8.0947 -3.5641
                  CHANNELS 6 Xposition Yposition Zposition Zrotation Xrotation Yrotation
                  JOINT LeftFinger41
                  {
                    OFFSET -0.4882 -2.341 -0.6462
                    CHANNELS 6 Xposition Yposition Zposition Zrotation Xrotation Yrotation
                    JOINT LeftFinger42
                    {
                      OFFSET -0.3575 -1.7167 -0.4742
                      CHANNELS 6 Xposition Yposition Zposition Zrotation Xrotation Yrotation
                      End Site
                      {
                        OFFSET -0.4187 -1.5237 -0.3496
                      }
                    }
                  }
                }
                JOINT LeftFinger0
                {
                  OFFSET -1.42 -1.8761 1.4223
                  CHANNELS 6 Xposition Yposition Zposition Zrotation Xrotation Yrotation
                  JOINT LeftFinger01
                  {
                    OFFSET -1.1471 -3.4929 2.6334
                    CHANNELS 6 Xposition Yposition Zposition Zrotation Xrotation Yrotation
                    JOINT LeftFinger02
                    {
                      OFFSET -0.823 -2.3 1.6571
                      CHANNELS 6 Xposition Yposition Zposition Zrotation Xrotation Yrotation
                      End Site
                      {
                        OFFSET -0.5822 -1.6914 1.1582
                      }
                    }
                  }
                }
              }
            }
          }
        }
        JOINT RightCollar
        {
          OFFSET -2.2603 21.606 7.4023
          CHANNELS 6 Xposition Yposition Zposition Zrotation Xrotation Yrotation
          JOINT RightShoulder
          {
            OFFSET -13.5187 -1.1334 -5.0155
            CHANNELS 6 Xposition Yposition Zposition Zrotation Xrotation Yrotation
            JOINT RightElbow
            {
              OFFSET 0.0994 -28.0499 -0.2431
              CHANNELS 6 Xposition Yposition Zposition Zrotation Xrotation Yrotation
              JOINT RightWrist
              {
                OFFSET -0.0679 -23.3996 -0.1402
                CHANNELS 6 Xposition Yposition Zposition Zrotation Xrotation Yrotation
                JOINT RightFinger1
                {
                  OFFSET -0.7932 -9.0691 2.5189
                  CHANNELS 6 Xposition Yposition Zposition Zrotation Xrotation Yrotation
                  JOINT RightFinger11
                  {
                    OFFSET 0.8272 -3.3923 0.5977
                    CHANNELS 6 Xposition Yposition Zposition Zrotation Xrotation Yrotation
                    JOINT RightFinger12
                    {
                      OFFSET 0.565 -2.3158 0.4082
                      CHANNELS 6 Xposition Yposition Zposition Zrotation Xrotation Yrotation
                      End Site
                      {
                        OFFSET 0.4919 -1.6479 0.2673
                      }
                    }
                  }
                }
                JOINT RightFinger2
                {
                  OFFSET -0.916 -9.2044 0.2193
                  CHANNELS 6 Xposition Yposition Zposition Zrotation Xrotation Yrotation
                  JOINT RightFinger21
                  {
                    OFFSET -0.0117 -4.1944 -0.0248
                    CHANNELS 6 Xposition Yposition Zposition Zrotation Xrotation Yrotation
                    JOINT RightFinger22
                    {
                      OFFSET -0.0071 -2.3249 -0.0142
                      CHANNELS 6 Xposition Yposition Zposition Zrotation Xrotation Yrotation
                      End Site
                      {
                        OFFSET 0.1475 -2.0882 0.0028
                      }
                    }
                  }
                }
                JOINT RightFinger3
                {
                  OFFSET -0.6113 -8.7231 -2.0637
                  CHANNELS 6 Xposition Yposition Zposition Zrotation Xrotation Yrotation
                  JOINT RightFinger31
                  {
                    OFFSET 0.1927 -3.8059 -0.2383
                    CHANNELS 6 Xposition Yposition Zposition Zrotation Xrotation Yrotation
                    JOINT RightFinger32
                    {
                      OFFSET 0.1091 -2.1688 -0.1362
                      CHANNELS 6 Xposition Yposition Zposition Zrotation Xrotation Yrotation
                      End Site
                      {
                        OFFSET 0.2358 -1.9176 -0.0906
                      }
                    }
                  }
                }
                JOINT RightFinger4
                {
                  OFFSET 0.6151 -8.0947 -3.564
                  CHANNELS 6 Xposition Yposition Zposition Zrotation Xrotation Yrotation
                  JOINT RightFinger41
                  {
                    OFFSET 0.4882 -2.341 -0.6462
                    CHANNELS 6 Xposition Yposition Zposition Zrotation Xrotation Yrotation
                    JOINT RightFinger42
                    {
                      OFFSET 0.3574 -1.7166 -0.4742
                      CHANNELS 6 Xposition Yposition Zposition Zrotation Xrotation Yrotation
                      End Site
                      {
                        OFFSET 0.4187 -1.5237 -0.3496
                      }
                    }
                  }
                }
                JOINT RightFinger0
                {
                  OFFSET 1.4199 -1.8761 1.4221
                  CHANNELS 6 Xposition Yposition Zposition Zrotation Xrotation Yrotation
                  JOINT RightFinger01
                  {
                    OFFSET 1.1472 -3.4929 2.6336
                    CHANNELS 6 Xposition Yposition Zposition Zrotation Xrotation Yrotation
                    JOINT RightFinger02
                    {
                      OFFSET 0.8229 -2.3 1.6571
                      CHANNELS 6 Xposition Yposition Zposition Zrotation Xrotation Yrotation
                      End Site
                      {
                        OFFSET 0.5822 -1.6914 1.1582
                      }
                    }
                  }
                }
              }
            }
          }
        }
      }
    }
  }
  JOINT RightHip
  {
    OFFSET -9.412 3.9771 -0.7758
    CHANNELS 6 Xposition Yposition Zposition Zrotation Xrotation Yrotation
    JOINT RightKnee
    {
      OFFSET -0.7531 -40.938 0
      CHANNELS 6 Xposition Yposition Zposition Zrotation Xrotation Yrotation
      JOINT RightAnkle
      {
        OFFSET 0 -40.1986 0
        CHANNELS 6 Xposition Yposition Zposition Zrotation Xrotation Yrotation
        JOINT RightToe
        {
          OFFSET 0 -4.4182 9.239
          CHANNELS 6 Xposition Yposition Zposition Zrotation Xrotation Yrotation
          End Site
          {
            OFFSET 0 0 6.1981
          }
        }
      }
    }
  }
  JOINT LeftHip
  {
    OFFSET 9.4119 3.9773 -0.7758
    CHANNELS 6 Xposition Yposition Zposition Zrotation Xrotation Yrotation
    JOINT LeftKnee
    {
      OFFSET 0.7532 -40.9383 0
      CHANNELS 6 Xposition Yposition Zposition Zrotation Xrotation Yrotation
      JOINT LeftAnkle
      {
        OFFSET 0 -40.1986 0
        CHANNELS 6 Xposition Yposition Zposition Zrotation Xrotation Yrotation
        JOINT LeftToe
        {
          OFFSET 0 -4.4182 9.239
          CHANNELS 6 Xposition Yposition Zposition Zrotation Xrotation Yrotation
          End Site
          {
            OFFSET 0 0 6.1981
          }
        }
      }
    }
  }
}
MOTION
Frames:	4
Frame Time:	0.0333333
5.72205e-005 65.662 3.42586 0 0 -0 0 8.7983 -4.7612 0 0 -0 0 8.0291 0.4195 0 0 -0 0 9.9351 -2.2114 0 0 -0 0 22.3885 -0.4656 0 0 -0 -0.0001 12.643 3.4389 0 0 -0 2.2603 21.606 7.4023 0 0 -12.5014 13.5163 -1.1332 -5.0146 88.1196 14.2451 10.6914 -0.0995 -28.05 -0.2431 -0.00160068 -0.00239207 0.000740045 0.0679 -23.3996 -0.1402 -8.4365e-005 7.00714e-005 -9.52055e-007 0.7932 -9.069 2.5189 9.93923e-017 -1.98785e-016 -1.59028e-015 -0.8272 -3.3923 0.5977 9.93923e-017 -5.96354e-016 -1.59028e-015 -0.5649 -2.3158 0.4082 -9.93923e-017 -5.96354e-016 -1.59028e-015 0.9159 -9.2044 0.2193 9.93923e-017 -1.98785e-016 -1.59028e-015 0.0117 -4.1944 -0.0248 -0.0128176 0.00232552 8.52707e-005 0.0071 -2.3249 -0.0142 9.93923e-017 5.96354e-016 -0 0.6113 -8.7231 -2.0637 9.93923e-017 -1.98785e-016 -1.59028e-015 -0.1927 -3.8059 -0.2383 -0.0160551 0.00299681 0.000857156 -0.1091 -2.1688 -0.1362 -2.48481e-016 0 3.18055e-015 -0.6151 -8.0947 -3.5641 9.93923e-017 -1.98785e-016 -1.59028e-015 -0.4882 -2.341 -0.6462 -0.0125865 0.0031206 0.00282719 -0.3575 -1.7167 -0.4742 0 1.98785e-016 -0 -1.42 -1.8761 1.4223 9.93923e-017 -1.98785e-016 -1.59028e-015 -1.1471 -3.4929 2.6334 9.93923e-017 -5.96354e-016 -1.59028e-015 -0.823 -2.3 1.6571 -9.93923e-017 -5.96354e-016 -1.59028e-015 -2.2603 21.606 7.4023 -0.865644 0.16582 7.03859 -13.5187 -1.1334 -5.0155 -88.0329 10.2057 -10.5567 0.0994 -28.0499 -0.2431 0.0015593 -0.00248883 -0.000788628 -0.0679 -23.3996 -0.1402 7.87605e-005 4.10553e-005 1.24965e-005 -0.7932 -9.0691 2.5189 -3.97569e-016 -7.95139e-016 3.18055e-015 0.8272 -3.3923 0.5977 -1.98785e-016 -3.97569e-016 3.18055e-015 0.565 -2.3158 0.4082 -1.98785e-016 0 3.18055e-015 -0.916 -9.2044 0.2193 -3.97569e-016 -7.95139e-016 3.18055e-015 -0.0117 -4.1944 -0.0248 0.0129473 0.00231697 -8.70038e-005 -0.0071 -2.3249 -0.0142 9.93923e-017 -7.95139e-016 1.59028e-015 -0.6113 -8.7231 -2.0637 -3.97569e-016 -7.95139e-016 3.18055e-015 0.1927 -3.8059 -0.2383 0.0163314 0.00303369 -0.000872333 0.1091 -2.1688 -0.1362 3.97569e-016 7.95139e-016 -3.18055e-015 0.6151 -8.0947 -3.564 -3.97569e-016 -7.95139e-016 3.18055e-015 0.4882 -2.341 -0.6462 0.0145763 0.00367772 -0.00326275 0.3574 -1.7166 -0.4742 9.93923e-017 -3.97569e-016 -0 1.4199 -1.8761 1.4221 -3.97569e-016 -7.95139e-016 3.18055e-015 1.1472 -3.4929 2.6336 -1.98785e-016 -3.97569e-016 3.18055e-015 0.8229 -2.3 1.6571 -1.98785e-016 0 3.18055e-015 -9.412 3.9771 -0.7758 3.42482 1.32465 -0.0626183 -0.7531 -40.938 0 0.000117508 0.717283 0.000978199 0 -40.1986 0 -3.4257 -2.04197 -0.0604716 8.88178e-016 -4.4182 9.239 6.47761e-025 0 -0 9.4119 3.9773 -0.7758 -3.42483 1.34017 0.0627307 0.7532 -40.9383 -2.22045e-016 -0.000193936 0.682302 -0.0013703 -8.88179e-016 -40.1986 0 3.42574 -2.02253 0.0595886 -8.88178e-016 -4.4182 9.239 -8.45714e-024 0 -7.40531e-025 
-5.64157 -0.680008 -60.2114 90.1058 -80.9862 -179.891 1.11022e-016 8.7983 -4.7612 2.03345 -3.0683 -0.260481 -4.44089e-016 8.0291 0.4195 4.06166 -6.14382 -0.412513 -1.77636e-015 9.9351 -2.2114 4.06167 -6.14384 -0.412489 0 22.3885 -0.4656 8.99833 -1.98037 0.311975 -0.0001 12.643 3.4389 7.54445e-006 14.9982 1.64905e-006 2.2603 21.606 7.4023 -22.7388 1.49182 -27.9817 13.5163 -1.1332 -5.0146 55.1132 -48.2786 24.8625 -0.0995 -28.05 -0.2431 -4.94118 0.986515 -4.59358 0.0679 -23.3996 -0.1402 -69.1024 -17.8287 -8.5504 0.7932 -9.069 2.5189 -1.59028e-015 -3.18055e-015 -3.18055e-015 -0.8272 -3.3923 0.5977 -1.19271e-015 -8.44514e-007 -0 -0.5649 -2.3158 0.4082 2.78299e-015 0 -0 0.9159 -9.2044 0.2193 -1.59028e-015 -3.18055e-015 -3.18055e-015 0.0117 -4.1944 -0.0248 -0.0128597 0.00233779 8.85936e-005 0.0071 -2.3249 -0.0142 3.57812e-015 0 -0 0.6113 -8.7231 -2.0637 -1.59028e-015 -3.18055e-015 -3.18055e-015 -0.1927 -3.8059 -0.2383 -0.0160346 0.00299448 0.000862782 -0.1091 -2.1688 -0.1362 1.19271e-015 0 -0 -0.6151 -8.0947 -3.5641 -1.59028e-015 -3.18055e-015 -3.18055e-015 -0.4882 -2.341 -0.6462 -0.012571 0.0031204 0.00282818 -0.3575 -1.7167 -0.4742 4.14102e-006 -1.64202e-006 2.91376e-006 -1.42 -1.8761 1.4223 -1.59028e-015 -3.18055e-015 -3.18055e-015 -1.1471 -3.4929 2.6334 -1.19271e-015 -8.44514e-007 -0 -0.823 -2.3 1.6571 2.78299e-015 0 -0 -2.2603 21.606 7.4023 6.34221 -19.1149 -37.2911 -13.5187 -1.1334 -5.0155 -57.8868 25.3803 -3.46985 0.0994 -28.0499 -0.2431 67.099 4.65778 -35.65 -0.0679 -23.3996 -0.1402 -29.2874 -17.157 4.64599 -0.793201 -9.0691 2.5189 -4.77083e-015 1.59028e-015 1.98785e-015 0.827201 -3.3923 0.5977 3.84028e-006 2.71665e-006 4.56242e-006 0.565 -2.3158 0.4082 1.91987e-006 3.89037e-007 2.25775e-006 -0.916001 -9.2044 0.2193 -4.77083e-015 1.59028e-015 1.98785e-015 -0.0117 -4.1944 -0.0248 0.0129606 0.0023141 -7.39583e-005 -0.0071 -2.3249 -0.0142 1.40214e-006 1.99463e-005 -1.86543e-006 -0.6113 -8.7231 -2.0637 -4.77083e-015 1.59028e-015 1.98785e-015 0.1927 -3.8059 -0.2383 0.0163057 0.00302108 -0.000861338 0.1091 -2.1688 -0.1362 1.28071e-006 1.92205e-005 -1.4593e-006 0.6151 -8.0947 -3.564 -4.77083e-015 1.59028e-015 1.98785e-015 0.4882 -2.341 -0.6462 0.0146018 0.00367324 -0.00326191 0.3574 -1.7166 -0.4742 8.01168e-006 2.16037e-006 2.14438e-006 1.4199 -1.8761 1.4221 -4.77083e-015 1.59028e-015 1.98785e-015 1.1472 -3.4929 2.6336 3.84028e-006 2.71665e-006 4.56242e-006 0.8229 -2.3 1.6571 1.91987e-006 3.89037e-007 2.25775e-006 -9.412 3.9771 -0.7758 -63.8934 -19.4013 -81.796 -0.7531 -40.938 -7.10543e-015 147.98 45.3287 -143.215 3.55271e-015 -40.1986 7.10543e-015 0.681029 17.604 10.9989 0 -4.4182 9.239 8.46719e-007 9.27226e-007 -5.79285e-008 9.4119 3.9773 -0.7758 -1.49882 16.0503 7.91907 0.7532 -40.9383 0 -0.141083 47.8918 -2.99572 0 -40.1986 -3.55271e-015 5.00923 35.0111 3.98737 0 -4.4182 9.239 -1.70668e-005 9.06875e-007 -5.43261e-009 
-5.85754 -0.679832 -60.0953 90.1078 -81.4865 -179.889 -1.11022e-016 8.7983 -4.7612 2.03346 -3.06824 -0.260491 0 8.0291 0.4195 4.06167 -6.14384 -0.412504 1.77636e-015 9.9351 -2.2114 4.06168 -6.14386 -0.412498 -1.77636e-015 22.3885 -0.4656 8.99831 -1.98033 0.311958 -0.0001 12.643 3.4389 1.11441e-005 14.7063 -6.92053e-006 2.2603 21.606 7.4023 -22.2487 0.948124 -27.118 13.5163 -1.1332 -5.0146 54.3267 -49.1791 24.2632 -0.0995 -28.05 -0.2431 -5.44489 1.07661 -4.62297 0.0679 -23.3996 -0.1402 -68.8194 -18.0012 -8.65553 0.7932 -9.069 2.5189 2.43774e-006 -1.17618e-006 5.87905e-007 -0.8272 -3.3923 0.5977 -2.99793e-007 8.44742e-007 1.625e-006 -0.5649 -2.3158 0.4082 -1.62516e-006 -2.07868e-006 -3.91937e-007 0.9159 -9.2044 0.2193 2.43774e-006 -1.17618e-006 5.87905e-007 0.0117 -4.1944 -0.0248 -0.0127871 0.00232049 8.46712e-005 0.0071 -2.3249 -0.0142 3.13543e-006 -2.78639e-006 -1.16329e-006 0.6113 -8.7231 -2.0637 2.43774e-006 -1.17618e-006 5.87905e-007 -0.1927 -3.8059 -0.2383 -0.016108 0.00300468 0.000856259 -0.1091 -2.1688 -0.1362 2.1262e-007 8.51368e-008 3.44598e-006 -0.6151 -8.0947 -3.5641 2.43774e-006 -1.17618e-006 5.87905e-007 -0.4882 -2.341 -0.6462 -0.012616 0.0031315 0.00283373 -0.3575 -1.7167 -0.4742 1.59028e-015 -9.06895e-007 -1.59028e-015 -1.42 -1.8761 1.4223 2.43774e-006 -1.17618e-006 5.87905e-007 -1.1471 -3.4929 2.6334 -2.99793e-007 8.44742e-007 1.625e-006 -0.823 -2.3 1.6571 -1.62516e-006 -2.07868e-006 -3.91937e-007 -2.2603 21.606 7.4023 6.34219 -19.1148 -37.2911 -13.5187 -1.1334 -5.0155 -57.8868 25.3804 -3.46986 0.0994 -28.0499 -0.2431 67.099 4.6578 -35.65 -0.0679 -23.3996 -0.1402 -29.2874 -17.1571 4.64604 -0.7932 -9.0691 2.5189 -1.59028e-015 -1.59028e-015 2.38542e-015 0.8272 -3.3923 0.5977 -6.36111e-015 1.59028e-015 7.95139e-016 0.565 -2.3158 0.4082 -4.77083e-015 1.59028e-015 1.59028e-015 -0.916 -9.2044 0.2193 -1.59028e-015 -1.59028e-015 2.38542e-015 -0.0117 -4.1944 -0.0248 0.0129433 0.00232766 -8.68717e-005 -0.0071 -2.3249 -0.0142 -4.41391e-032 -3.18055e-015 -7.95139e-016 -0.6113 -8.7231 -2.0637 -1.59028e-015 -1.59028e-015 2.38542e-015 0.1927 -3.8059 -0.2383 0.0163282 0.00305349 -0.000879582 0.1091 -2.1688 -0.1362 -1.59028e-015 -1.59028e-015 3.97569e-016 0.6151 -8.0947 -3.564 -1.59028e-015 -1.59028e-015 2.38542e-015 0.4882 -2.341 -0.6462 0.0145628 0.00368391 -0.00326355 0.3574 -1.7166 -0.4742 -4.77083e-015 -1.59028e-015 1.19271e-015 1.4199 -1.8761 1.4221 -1.59028e-015 -1.59028e-015 2.38542e-015 1.1472 -3.4929 2.6336 -6.36111e-015 1.59028e-015 7.95139e-016 0.8229 -2.3 1.6571 -4.77083e-015 1.59028e-015 1.59028e-015 -9.412 3.9771 -0.7758 -64.1812 -19.883 -82.4767 -0.7531 -40.938 7.10543e-015 147.972 45.3357 -143.212 0 -40.1986 3.55271e-015 0.795624 17.6514 10.6494 0 -4.4182 9.239 1.10545e-007 2.17566e-006 -1.58721e-005 9.4119 3.9773 -0.7758 -1.52787 15.0519 7.95878 0.7532 -40.9383 0 0.0977479 48.6166 -3.1432 0 -40.1986 0 4.97191 35.0016 4.01442 -8.88178e-016 -4.4182 9.239 -9.3257e-010 -4.27745e-007 4.25968e-007 
-6.07381 -0.679695 -59.9797 90.1101 -81.9869 -179.887 -1.11022e-016 8.7983 -4.7612 2.03344 -3.06827 -0.260492 0 8.0291 0.4195 4.06166 -6.14384 -0.412495 -1.77636e-015 9.9351 -2.2114 4.06166 -6.14384 -0.412499 -1.77636e-015 22.3885 -0.4656 8.99835 -1.98037 0.31196 -0.0001 12.643 3.4389 -2.00543e-006 14.4143 7.86944e-006 2.2603 21.606 7.4023 -21.7498 0.410971 -26.2485 13.5163 -1.1332 -5.0146 53.5099 -50.0752 23.6327 -0.0995 -28.05 -0.2431 -5.94839 1.16695 -4.65303 0.0679 -23.3996 -0.1402 -68.5363 -18.1743 -8.75986 0.7932 -9.069 2.5189 7.95139e-016 3.12002e-008 1.59028e-015 -0.8272 -3.3923 0.5977 1.98785e-015 2.22639e-014 3.18055e-015 -0.5649 -2.3158 0.4082 1.19271e-015 -3.12002e-008 1.59028e-015 0.9159 -9.2044 0.2193 7.95139e-016 3.12002e-008 1.59028e-015 0.0117 -4.1944 -0.0248 -0.0128342 0.00232698 8.57819e-005 0.0071 -2.3249 -0.0142 -7.95139e-016 1.59028e-015 -4.77083e-015 0.6113 -8.7231 -2.0637 7.95139e-016 3.12002e-008 1.59028e-015 -0.1927 -3.8059 -0.2383 -0.0161015 0.00300533 0.000859476 -0.1091 -2.1688 -0.1362 -2.78299e-015 1.59028e-015 -1.59028e-015 -0.6151 -8.0947 -3.5641 7.95139e-016 3.12002e-008 1.59028e-015 -0.4882 -2.341 -0.6462 -0.0126615 0.00313344 0.00284025 -0.3575 -1.7167 -0.4742 1.98785e-015 -1.59028e-015 3.18055e-015 -1.42 -1.8761 1.4223 7.95139e-016 3.12002e-008 1.59028e-015 -1.1471 -3.4929 2.6334 1.98785e-015 2.22639e-014 3.18055e-015 -0.823 -2.3 1.6571 1.19271e-015 -3.12002e-008 1.59028e-015 -2.2603 21.606 7.4023 6.3422 -19.1149 -37.2911 -13.5187 -1.1334 -5.0155 -57.8868 25.3803 -3.46985 0.0994 -28.0499 -0.2431 67.099 4.65782 -35.65 -0.0679 -23.3996 -0.1402 -29.2874 -17.157 4.64602 -0.7932 -9.0691 2.5189 -4.77083e-015 -1.59028e-015 -3.57812e-015 0.8272 -3.3923 0.5977 -1.59028e-015 0 -3.18055e-015 0.565 -2.3158 0.4082 -1.59028e-015 1.59028e-015 -4.37326e-015 -0.916 -9.2044 0.2193 -4.77083e-015 -1.59028e-015 -3.57812e-015 -0.0117 -4.1944 -0.0248 0.0129422 0.0023203 -8.35321e-005 -0.0071 -2.3249 -0.0142 1.59028e-015 1.59028e-015 -1.19271e-015 -0.6113 -8.7231 -2.0637 -4.77083e-015 -1.59028e-015 -3.57812e-015 0.1927 -3.8059 -0.2383 0.0163304 0.00302491 -0.000869275 0.1091 -2.1688 -0.1362 -6.62086e-032 -1.59028e-015 -2.38542e-015 0.6151 -8.0947 -3.564 -4.77083e-015 -1.59028e-015 -3.57812e-015 0.4882 -2.341 -0.6462 0.0146052 0.00370345 -0.0032687 0.3574 -1.7166 -0.4742 -1.59028e-015 -3.18055e-015 -3.97569e-016 1.4199 -1.8761 1.4221 -4.77083e-015 -1.59028e-015 -3.57812e-015 1.1472 -3.4929 2.6336 -1.59028e-015 0 -3.18055e-015 0.8229 -2.3 1.6571 -1.59028e-015 1.59028e-015 -4.37326e-015 -9.412 3.9771 -0.7758 -64.4762 -20.3617 -83.1625 -0.7531 -40.938 -1.42109e-014 147.963 45.3426 -143.208 3.55271e-015 -40.1986 0 0.910563 17.698 10.2996 -3.55271e-015 -4.4182 9.23901 2.16281e-030 5.56597e-015 -2.22639e-014 9.4119 3.9773 -0.7758 -1.55684 14.1729 7.99993 0.7532 -40.9383 0 0.327029 49.222 -3.29859 -1.77636e-015 -40.1986 0 4.93543 34.9922 4.04123 8.88178e-016 -4.4182 9.239 -2.60905e-016 7.48837e-007 -7.95139e-016 
